<svg width="284" height="91" viewBox="0 0 284 91" fill="none" xmlns="http://www.w3.org/2000/svg">
<path d="M0.197266 26.3105C3.38737 26.4017 6.0306 26.4701 8.12695 26.5156C10.2689 26.5156 12.0007 26.5156 13.3223 26.5156H16.9453H37.3164C37.4076 27.4271 37.4759 28.3158 37.5215 29.1816C37.6126 30.002 37.6582 30.7311 37.6582 31.3691C37.6582 32.1439 37.6354 32.8503 37.5898 33.4883C37.5443 34.1263 37.4759 34.8099 37.3848 35.5391C37.2936 36.1771 37.2025 36.8607 37.1113 37.5898C37.0202 38.319 36.8607 39.071 36.6328 39.8457C35.9948 37.3848 35.1289 35.5163 34.0352 34.2402C32.987 32.9642 31.916 32.0299 30.8223 31.4375C29.5462 30.7539 28.2018 30.3893 26.7891 30.3438C24.9206 30.4349 23.4622 30.5944 22.4141 30.8223C21.3659 31.0501 20.5456 31.3691 19.9531 31.7793C19.3607 32.1895 18.9049 32.668 18.5859 33.2148C18.3125 33.7161 18.0163 34.2858 17.6973 34.9238C17.4238 35.4707 17.1732 36.3138 16.9453 37.4531C16.7174 38.4102 16.4896 39.709 16.2617 41.3496C16.0794 42.9902 15.8743 45.1094 15.6465 47.707C16.877 47.3424 17.8568 47.0007 18.5859 46.6816C19.3607 46.3626 19.9759 46.0892 20.4316 45.8613C20.9329 45.5879 21.2975 45.3372 21.5254 45.1094C21.7077 44.8359 21.9811 44.3346 22.3457 43.6055C22.6191 42.9674 22.9837 42.1016 23.4395 41.0078C23.9408 39.9141 24.5332 38.4102 25.2168 36.4961C25.3079 38.5924 25.3535 40.347 25.3535 41.7598C25.3535 43.127 25.3763 44.2435 25.4219 45.1094C25.4219 46.112 25.4447 46.9095 25.4902 47.502V50.0996C25.4902 51.0566 25.4902 52.3555 25.4902 53.9961C25.5358 55.5911 25.6042 57.6191 25.6953 60.0801C25.1484 58.3939 24.6471 57.0723 24.1914 56.1152C23.7812 55.1126 23.4167 54.3607 23.0977 53.8594C22.7331 53.2669 22.4141 52.8568 22.1406 52.6289C21.8216 52.5378 21.3887 52.4466 20.8418 52.3555C20.3405 52.3099 19.7025 52.2871 18.9277 52.2871C18.1986 52.2871 17.2643 52.401 16.125 52.6289C15.9883 55.1354 15.9655 57.1634 16.0566 58.7129C16.1934 60.2168 16.3757 61.3789 16.6035 62.1992C16.8314 63.1562 17.1048 63.8398 17.4238 64.25C17.834 64.6602 18.6543 65.002 19.8848 65.2754C21.1152 65.5033 22.5052 65.5944 24.0547 65.5488C25.6497 65.4577 27.2676 65.1842 28.9082 64.7285C30.5488 64.2728 32.0072 63.5208 33.2832 62.4727C34.2402 61.6068 35.2656 60.513 36.3594 59.1914C37.2708 58.0521 38.2734 56.6165 39.3672 54.8848C40.5065 53.153 41.623 51.0566 42.7168 48.5957C42.5345 50.6465 42.3978 52.3555 42.3066 53.7227C42.2611 55.0443 42.1927 56.1152 42.1016 56.9355C42.0104 57.8926 41.9421 58.6217 41.8965 59.123C41.8965 59.6699 41.8281 60.4447 41.6914 61.4473C41.6003 62.3132 41.4408 63.498 41.2129 65.002C41.0306 66.4603 40.7799 68.3288 40.4609 70.6074C38.319 70.653 36.291 70.6986 34.377 70.7441C32.4629 70.7441 30.7767 70.7669 29.3184 70.8125C27.5866 70.8581 25.9915 70.9036 24.5332 70.9492C23.0293 70.9492 21.3659 71.0176 19.543 71.1543C17.9479 71.2454 16.0566 71.3822 13.8691 71.5645C11.7272 71.7467 9.35742 71.9974 6.75977 72.3164C6.98763 69.2174 7.14714 66.3008 7.23828 63.5664C7.375 60.7865 7.46615 58.3483 7.51172 56.252C7.55729 53.791 7.55729 51.5124 7.51172 49.416C7.73958 44.1751 7.64844 39.9368 7.23828 36.7012C6.82812 33.4655 6.34961 31.3919 5.80273 30.4805C5.5293 30.1615 5.14193 29.7741 4.64062 29.3184C4.23047 28.9538 3.66081 28.5208 2.93164 28.0195C2.20247 27.5182 1.29102 26.9486 0.197266 26.3105ZM79.4258 20.6367C80.2917 20.6823 81.2259 20.7051 82.2285 20.7051C83.0944 20.7051 84.0742 20.7279 85.168 20.7734C86.3073 20.7734 87.4922 20.7279 88.7227 20.6367C87.6289 21.138 86.6719 21.8672 85.8516 22.8242C85.0312 23.7812 84.3704 24.7383 83.8691 25.6953C83.2311 26.8346 82.707 28.0195 82.2969 29.25C82.069 29.9792 81.8867 31.278 81.75 33.1465C81.6133 34.9694 81.4993 37.1113 81.4082 39.5723C81.3626 42.0332 81.3398 44.6309 81.3398 47.3652C81.3398 50.0996 81.3626 52.7201 81.4082 55.2266C81.4538 57.6875 81.5221 59.875 81.6133 61.7891C81.7044 63.7031 81.8184 65.0475 81.9551 65.8223C82.1374 66.7337 82.3652 67.5996 82.6387 68.4199C82.8665 69.1491 83.1628 69.901 83.5273 70.6758C83.8919 71.4049 84.3477 71.9974 84.8945 72.4531L77.9219 75.5977C77.5573 75.0964 77.2611 74.5723 77.0332 74.0254C76.8053 73.5241 76.623 73.0684 76.4863 72.6582C76.304 72.1569 76.1901 71.7012 76.1445 71.291C76.0534 70.7441 75.9622 70.1517 75.8711 69.5137C75.7799 68.8301 75.666 68.1921 75.5293 67.5996C75.4382 66.9616 75.3698 66.4375 75.3242 66.0273C75.2786 65.6172 75.2786 65.3665 75.3242 65.2754C75.3698 65.1842 75.0964 65.5944 74.5039 66.5059C73.9115 67.3717 73.0228 68.3971 71.8379 69.582C70.6986 70.7214 69.2858 71.8379 67.5996 72.9316C65.9134 73.9798 64.0221 74.6406 61.9258 74.9141C59.7839 75.1875 57.8014 74.7773 55.9785 73.6836C54.2012 72.5898 52.6745 71.0632 51.3984 69.1035C50.1224 67.0983 49.1426 64.7969 48.459 62.1992C47.821 59.556 47.5703 56.8672 47.707 54.1328C47.7982 52.3099 48.2083 50.6921 48.9375 49.2793C49.6667 47.821 50.5781 46.5677 51.6719 45.5195C52.8112 44.4258 54.0417 43.5143 55.3633 42.7852C56.7305 42.0104 58.0521 41.3724 59.3281 40.8711C60.6497 40.3698 61.8802 40.0052 63.0195 39.7773C64.1589 39.5495 65.0703 39.39 65.7539 39.2988C66.5742 39.2533 67.5085 39.39 68.5566 39.709C69.4681 39.9824 70.5163 40.4382 71.7012 41.0762C72.9316 41.7142 74.2988 42.6712 75.8027 43.9473C75.5293 39.39 75.2786 35.7441 75.0508 33.0098C74.8229 30.2298 74.5951 28.1107 74.3672 26.6523C74.1393 24.9206 73.9342 23.7357 73.752 23.0977C73.5241 22.6419 73.2279 22.1862 72.8633 21.7305C72.5443 21.3659 72.1341 21.0013 71.6328 20.6367C71.1771 20.2266 70.6302 19.9076 69.9922 19.6797C71.1771 19.9076 72.3164 20.0671 73.4102 20.1582C74.5039 20.2493 75.5065 20.3405 76.418 20.4316C77.4661 20.5228 78.4688 20.5911 79.4258 20.6367ZM62.2676 46.1348C61.4017 46.4538 60.6953 47.0007 60.1484 47.7754C59.6471 48.5501 59.237 49.4844 58.918 50.5781C58.599 51.6263 58.3711 52.7656 58.2344 53.9961C58.1432 55.181 58.0749 56.3431 58.0293 57.4824C58.0293 58.5762 58.0293 59.5788 58.0293 60.4902C58.0293 61.4017 58.0293 62.0853 58.0293 62.541C58.0293 62.8145 58.0749 63.3158 58.166 64.0449C58.3027 64.7285 58.5762 65.4577 58.9863 66.2324C59.3965 66.9616 59.9661 67.6224 60.6953 68.2148C61.4701 68.8073 62.4954 69.1035 63.7715 69.1035C64.8197 69.0124 65.9362 68.6478 67.1211 68.0098C68.1693 67.4629 69.3542 66.597 70.6758 65.4121C72.043 64.1816 73.5013 62.4271 75.0508 60.1484C74.9596 58.6901 74.8913 57.4824 74.8457 56.5254C74.8457 55.5684 74.8229 54.7936 74.7773 54.2012C74.7318 53.5176 74.709 52.9707 74.709 52.5605V51.5352C74.709 51.2617 74.709 50.9655 74.709 50.6465C74.709 50.3275 74.7318 50.0312 74.7773 49.7578C73.5013 48.8464 72.362 48.0716 71.3594 47.4336C70.4023 46.75 69.4453 46.2487 68.4883 45.9297C67.5768 45.5651 66.6198 45.4056 65.6172 45.4512C64.6602 45.4512 63.5436 45.679 62.2676 46.1348ZM87.6289 41.5547C88.8138 41.7826 89.8392 41.9648 90.7051 42.1016C91.6165 42.1927 92.3913 42.2839 93.0293 42.375C93.7585 42.4661 94.3965 42.5345 94.9434 42.5801C95.4902 42.6257 96.1283 42.6712 96.8574 42.7168C98.0879 42.7624 99.8197 42.7624 102.053 42.7168C100.731 42.6257 99.6829 42.9674 98.9082 43.7422C98.179 44.4714 97.6322 45.3145 97.2676 46.2715C96.8118 47.4108 96.5612 48.7324 96.5156 50.2363C96.4245 52.2415 96.4701 54.0645 96.6523 55.7051C96.8802 57.3001 97.2676 58.6673 97.8145 59.8066C98.4069 60.9004 99.1816 61.7207 100.139 62.2676C101.096 62.7689 102.326 62.9056 103.83 62.6777C105.334 62.4499 106.473 61.9258 107.248 61.1055C108.068 60.2396 108.661 59.1914 109.025 57.9609C109.39 56.6849 109.595 55.2493 109.641 53.6543C109.732 52.0592 109.8 50.3958 109.846 48.6641C109.846 46.9323 109.823 45.7018 109.777 44.9727C109.777 44.1979 109.755 43.6966 109.709 43.4688C109.663 43.2409 109.595 43.1497 109.504 43.1953C109.413 43.1953 109.299 43.0814 109.162 42.8535C109.071 42.6712 108.934 42.4889 108.752 42.3066C108.615 42.1243 108.433 41.9193 108.205 41.6914C107.977 41.418 107.727 41.1445 107.453 40.8711C108.638 40.9167 109.686 40.9622 110.598 41.0078C111.555 41.0078 112.352 41.0306 112.99 41.0762C113.719 41.1217 114.357 41.1673 114.904 41.2129C115.406 41.2585 116.066 41.3268 116.887 41.418C117.57 41.5091 118.459 41.6003 119.553 41.6914C120.646 41.7826 121.945 41.9193 123.449 42.1016C122.401 42.3294 121.558 42.6712 120.92 43.127C120.282 43.5827 119.781 44.0384 119.416 44.4941C119.006 44.9954 118.71 45.5423 118.527 46.1348C118.391 46.9095 118.391 48.0944 118.527 49.6895C118.618 51.1022 118.846 53.0391 119.211 55.5C119.576 57.9609 120.145 61.1966 120.92 65.207L115.52 68.4199L114.426 59.3281C113.104 61.5612 111.691 63.293 110.188 64.5234C108.729 65.7083 107.362 66.5742 106.086 67.1211C104.582 67.7591 103.124 68.1237 101.711 68.2148C99.8424 68.2148 98.2246 68.1009 96.8574 67.873C95.5358 67.5996 94.3965 67.2578 93.4395 66.8477C92.4824 66.4375 91.7077 65.9818 91.1152 65.4805C90.5684 64.9336 90.1582 64.3867 89.8848 63.8398C89.2467 62.7005 88.9049 61.2422 88.8594 59.4648C88.8138 57.6419 88.8822 55.8418 89.0645 54.0645C89.2467 52.2415 89.4518 50.5781 89.6797 49.0742C89.9076 47.5703 89.9759 46.5449 89.8848 45.998C89.7936 45.5879 89.6569 45.1322 89.4746 44.6309C89.2923 44.2207 89.0645 43.765 88.791 43.2637C88.5176 42.7168 88.1302 42.1471 87.6289 41.5547ZM144.162 22.4824C145.757 22.4824 147.193 22.7559 148.469 23.3027C149.79 23.804 150.998 24.3737 152.092 25.0117C153.231 25.6497 154.302 26.2422 155.305 26.7891C156.307 27.2904 157.333 27.541 158.381 27.541C159.201 27.4954 160.135 27.3815 161.184 27.1992C162.095 27.0169 163.143 26.7435 164.328 26.3789C165.559 25.9688 166.926 25.3763 168.43 24.6016C166.926 26.0599 165.695 27.2904 164.738 28.293C163.827 29.25 163.12 30.0475 162.619 30.6855C162.027 31.4147 161.594 31.9844 161.32 32.3945C161.047 32.8958 160.637 33.6478 160.09 34.6504C159.589 35.5618 158.905 36.7923 158.039 38.3418C157.173 39.8457 156.079 41.8281 154.758 44.2891C154.758 41.1445 154.439 38.7064 153.801 36.9746C153.208 35.2428 152.548 33.9212 151.818 33.0098C150.952 31.9616 149.973 31.3008 148.879 31.0273C147.876 30.8906 146.874 31.0729 145.871 31.5742C144.868 32.0299 143.866 32.7135 142.863 33.625C141.906 34.5365 140.972 35.6302 140.061 36.9062C139.195 38.1367 138.397 39.4355 137.668 40.8027C136.984 42.1699 136.415 43.5599 135.959 44.9727C135.503 46.3398 135.207 47.6159 135.07 48.8008C134.934 49.849 134.911 51.0794 135.002 52.4922C135.093 53.8594 135.298 55.2721 135.617 56.7305C135.936 58.1432 136.346 59.5332 136.848 60.9004C137.349 62.2676 137.964 63.498 138.693 64.5918C139.468 65.64 140.334 66.5059 141.291 67.1895C142.248 67.8275 143.342 68.1237 144.572 68.0781C145.939 67.987 147.284 67.5768 148.605 66.8477C149.745 66.2552 150.907 65.3438 152.092 64.1133C153.277 62.8372 154.302 61.0371 155.168 58.7129L165.285 60.5586C162.368 64.1133 159.52 66.7793 156.74 68.5566C154.006 70.334 151.545 71.5872 149.357 72.3164C146.805 73.1367 144.39 73.5241 142.111 73.4785C139.24 73.1595 136.551 72.2936 134.045 70.8809C131.538 69.4681 129.374 67.7591 127.551 65.7539C125.773 63.7031 124.383 61.4701 123.381 59.0547C122.378 56.6393 121.945 54.2695 122.082 51.9453C122.173 50.3958 122.492 48.5957 123.039 46.5449C123.586 44.4486 124.315 42.3066 125.227 40.1191C126.184 37.9316 127.323 35.7897 128.645 33.6934C129.966 31.597 131.424 29.7285 133.02 28.0879C134.615 26.4017 136.346 25.0573 138.215 24.0547C140.129 23.0065 142.111 22.4824 144.162 22.4824ZM167.541 74.9141C167.997 74.2305 168.361 73.5924 168.635 73C168.908 72.4076 169.136 71.9062 169.318 71.4961C169.501 70.9948 169.637 70.5391 169.729 70.1289C169.774 69.8555 169.797 69.0579 169.797 67.7363C169.797 66.4147 169.751 64.7513 169.66 62.7461C169.615 60.7409 169.546 58.485 169.455 55.9785C169.41 53.472 169.318 50.9199 169.182 48.3223C169.09 45.7246 168.977 43.1953 168.84 40.7344C168.749 38.2734 168.658 36.0632 168.566 34.1035C168.475 32.0983 168.384 30.4577 168.293 29.1816C168.202 27.9056 168.133 27.1764 168.088 26.9941C167.997 26.7207 167.837 26.4473 167.609 26.1738C167.154 25.627 166.379 25.1029 165.285 24.6016C167.609 24.0091 169.387 23.5306 170.617 23.166C171.346 22.9837 171.984 22.8014 172.531 22.6191C173.033 22.4368 173.534 22.2546 174.035 22.0723C174.445 21.89 174.901 21.6849 175.402 21.457C175.904 21.1836 176.359 20.8874 176.77 20.5684C176.542 21.89 176.359 23.166 176.223 24.3965C176.086 25.627 175.972 26.7663 175.881 27.8145C175.79 28.9993 175.744 30.1387 175.744 31.2324C175.516 33.4655 175.38 35.9036 175.334 38.5469C175.334 41.1445 175.357 43.7878 175.402 46.4766C175.448 49.1654 175.539 51.7858 175.676 54.3379C175.812 56.89 175.949 59.2142 176.086 61.3105C176.268 63.3613 176.428 65.1159 176.564 66.5742C176.747 67.987 176.883 68.8984 176.975 69.3086C177.157 69.9922 177.339 70.653 177.521 71.291C177.704 71.8379 177.909 72.4076 178.137 73C178.365 73.638 178.638 74.1393 178.957 74.5039H172.326C171.734 74.5039 171.164 74.5267 170.617 74.5723C170.116 74.6178 169.592 74.6634 169.045 74.709C168.498 74.7546 167.997 74.8229 167.541 74.9141ZM186.545 45.3145C186.773 45.041 186.91 44.5397 186.955 43.8105C187.046 43.0358 187.229 42.1699 187.502 41.2129C187.821 40.2559 188.345 39.2533 189.074 38.2051C189.803 37.1569 190.988 36.1771 192.629 35.2656C194.224 34.3542 195.773 33.8073 197.277 33.625C198.781 33.4427 200.217 33.5111 201.584 33.8301C202.951 34.1491 204.227 34.6504 205.412 35.334C206.643 36.0176 207.759 36.7695 208.762 37.5898C209.445 38.1367 209.992 38.9342 210.402 39.9824C210.812 40.985 211.132 42.1243 211.359 43.4004C211.587 44.6764 211.747 46.0208 211.838 47.4336C211.975 48.8008 212.066 50.1452 212.111 51.4668C212.157 52.7428 212.18 53.9277 212.18 55.0215C212.225 56.0697 212.316 56.9355 212.453 57.6191C212.635 58.6217 212.954 59.4876 213.41 60.2168C213.866 60.9004 214.367 61.4928 214.914 61.9941C215.461 62.4499 216.008 62.8145 216.555 63.0879C217.102 63.3613 217.58 63.5664 217.99 63.7031C218.264 63.8398 218.514 63.931 218.742 63.9766C219.198 64.1589 219.517 64.1589 219.699 63.9766C219.426 64.6146 219.175 65.1615 218.947 65.6172C218.719 66.0729 218.537 66.4603 218.4 66.7793C218.218 67.1439 218.059 67.4401 217.922 67.668C217.785 67.9414 217.626 68.1921 217.443 68.4199C217.307 68.6478 217.124 68.8984 216.896 69.1719C216.669 69.4453 216.441 69.7415 216.213 70.0605C215.62 69.8327 215.051 69.5592 214.504 69.2402C214.003 68.9212 213.547 68.625 213.137 68.3516C212.635 68.0326 212.18 67.7135 211.77 67.3945C211.359 67.0755 210.972 66.7109 210.607 66.3008C210.288 65.9362 209.947 65.5488 209.582 65.1387C209.263 64.7285 208.99 64.2728 208.762 63.7715C208.488 64.3639 207.827 65.207 206.779 66.3008C205.777 67.3945 204.455 68.3971 202.814 69.3086C201.174 70.1745 199.26 70.7897 197.072 71.1543C194.93 71.5189 192.561 71.2682 189.963 70.4023C188.824 70.0378 187.753 69.5137 186.75 68.8301C185.747 68.1009 184.882 67.235 184.152 66.2324C183.469 65.2298 182.967 64.0905 182.648 62.8145C182.375 61.4928 182.398 60.0345 182.717 58.4395C183.036 56.8444 183.605 55.5 184.426 54.4062C185.246 53.3125 186.226 52.4238 187.365 51.7402C188.505 51.0566 189.781 50.5326 191.193 50.168C192.606 49.8034 194.064 49.5527 195.568 49.416C196.753 49.3704 197.938 49.4388 199.123 49.6211C200.126 49.8034 201.174 50.1452 202.268 50.6465C203.361 51.1022 204.296 51.8086 205.07 52.7656C205.025 50.3503 204.934 48.4362 204.797 47.0234C204.706 45.5651 204.615 44.4486 204.523 43.6738C204.341 42.7624 204.182 42.1243 204.045 41.7598C203.817 41.4408 203.566 41.0762 203.293 40.666C203.065 40.2559 202.769 39.8913 202.404 39.5723C202.04 39.2077 201.584 38.9115 201.037 38.6836C200.49 38.4557 199.852 38.3646 199.123 38.4102C198.348 38.4557 197.733 38.6608 197.277 39.0254C196.822 39.39 196.457 39.8229 196.184 40.3242C195.956 40.7799 195.819 41.2812 195.773 41.8281C195.728 42.375 195.751 42.8535 195.842 43.2637C195.933 43.5371 196.07 43.8333 196.252 44.1523C196.434 44.4258 196.685 44.722 197.004 45.041C197.323 45.36 197.756 45.6335 198.303 45.8613C197.255 45.998 196.32 46.112 195.5 46.2031C194.68 46.2487 193.973 46.3171 193.381 46.4082C192.697 46.4993 192.105 46.5677 191.604 46.6133C191.102 46.6589 190.51 46.75 189.826 46.8867C189.234 46.9779 188.505 47.0918 187.639 47.2285C186.773 47.3652 185.77 47.5475 184.631 47.7754C184.904 47.4564 185.155 47.1602 185.383 46.8867C185.611 46.5677 185.816 46.2943 185.998 46.0664C186.18 45.793 186.363 45.5423 186.545 45.3145ZM196.799 53.4492C195.979 53.4948 195.158 53.6999 194.338 54.0645C193.518 54.3835 192.788 54.862 192.15 55.5C191.512 56.0924 190.965 56.7988 190.51 57.6191C190.1 58.3939 189.895 59.2598 189.895 60.2168C189.895 61.1738 190.122 62.0169 190.578 62.7461C191.079 63.4297 191.717 63.9993 192.492 64.4551C193.312 64.9108 194.178 65.1842 195.09 65.2754C196.047 65.3665 196.981 65.2754 197.893 65.002C198.758 64.6829 199.579 64.1816 200.354 63.498C201.128 62.7689 201.789 61.9941 202.336 61.1738C202.883 60.3079 203.27 59.4648 203.498 58.6445C203.726 57.7786 203.749 57.0723 203.566 56.5254C203.202 55.3405 202.382 54.5202 201.105 54.0645C199.829 53.5632 198.394 53.3581 196.799 53.4492ZM249.162 33.9668C248.752 34.9694 248.387 35.8809 248.068 36.7012C247.795 37.5215 247.544 38.2507 247.316 38.8887C247.089 39.6178 246.883 40.2559 246.701 40.8027C246.519 41.4408 246.314 42.1699 246.086 42.9902C245.858 43.7194 245.562 44.6309 245.197 45.7246C244.878 46.7728 244.491 48.026 244.035 49.4844C243.671 47.2969 243.01 45.5651 242.053 44.2891C241.096 42.9674 240.116 41.9421 239.113 41.2129C237.928 40.3926 236.652 39.8001 235.285 39.4355C232.824 39.0254 231.047 39.071 229.953 39.5723C228.859 40.0736 228.13 40.7116 227.766 41.4863C227.583 41.8053 227.378 42.2155 227.15 42.7168C226.968 43.1725 226.809 43.651 226.672 44.1523C226.581 44.6536 226.558 45.1549 226.604 45.6562C226.649 46.1576 226.854 46.5677 227.219 46.8867C227.447 47.1146 228.039 47.4336 228.996 47.8438C229.953 48.2083 231.092 48.6413 232.414 49.1426C233.781 49.5983 235.217 50.0996 236.721 50.6465C238.27 51.1934 239.729 51.7402 241.096 52.2871C242.463 52.834 243.648 53.3809 244.65 53.9277C245.653 54.4746 246.314 54.9759 246.633 55.4316C246.906 55.8874 247.202 56.5026 247.521 57.2773C247.886 58.0065 248.137 58.8268 248.273 59.7383C248.456 60.6042 248.501 61.5156 248.41 62.4727C248.365 63.3841 248.114 64.2956 247.658 65.207C247.202 66.1185 246.473 66.9616 245.471 67.7363C244.514 68.5111 243.215 69.1491 241.574 69.6504C239.66 70.2428 237.814 70.4023 236.037 70.1289C234.26 69.8555 232.619 69.4453 231.115 68.8984C229.657 68.3516 228.381 67.8275 227.287 67.3262C226.193 66.7793 225.419 66.5514 224.963 66.6426C224.462 66.7337 223.892 66.9844 223.254 67.3945C222.616 67.8047 222.001 68.2376 221.408 68.6934C220.861 69.1035 220.383 69.4909 219.973 69.8555C219.562 70.1745 219.357 70.2884 219.357 70.1973C219.357 70.1061 219.426 69.8327 219.562 69.377C219.745 68.9212 219.927 68.3743 220.109 67.7363C220.337 67.0527 220.542 66.3236 220.725 65.5488C220.952 64.7285 221.112 63.9538 221.203 63.2246C221.294 62.6322 221.408 61.903 221.545 61.0371C221.636 60.2624 221.75 59.3281 221.887 58.2344C222.069 57.0951 222.274 55.7279 222.502 54.1328C222.73 55.3177 223.049 56.3431 223.459 57.209C223.915 58.0749 224.348 58.8268 224.758 59.4648C225.259 60.194 225.738 60.8092 226.193 61.3105C226.877 61.9486 227.674 62.541 228.586 63.0879C229.543 63.6348 230.5 64.1133 231.457 64.5234C232.414 64.888 233.326 65.1159 234.191 65.207C235.057 65.2982 235.786 65.207 236.379 64.9336C236.971 64.6602 237.473 64.1589 237.883 63.4297C238.339 62.7005 238.658 61.903 238.84 61.0371C239.022 60.1712 239.09 59.3509 239.045 58.5762C238.999 57.7559 238.794 57.0951 238.43 56.5938C238.156 56.2747 237.518 55.8646 236.516 55.3633C235.559 54.862 234.396 54.3151 233.029 53.7227C231.708 53.1302 230.295 52.515 228.791 51.877C227.333 51.2389 225.943 50.6009 224.621 49.9629C223.345 49.2793 222.274 48.6413 221.408 48.0488C220.588 47.4108 220.132 46.8411 220.041 46.3398C219.95 45.6107 219.882 44.8132 219.836 43.9473C219.79 43.0358 219.836 42.1471 219.973 41.2812C220.155 40.3698 220.474 39.5039 220.93 38.6836C221.431 37.8633 222.16 37.1797 223.117 36.6328C223.755 36.2682 224.598 35.9948 225.646 35.8125C226.695 35.6302 227.857 35.5391 229.133 35.5391C230.409 35.4935 231.73 35.5391 233.098 35.6758C234.465 35.7669 235.764 35.9036 236.994 36.0859C238.27 36.2227 239.41 36.4049 240.412 36.6328C241.46 36.8607 242.258 37.0658 242.805 37.248C243.443 37.4759 244.126 37.4987 244.855 37.3164C245.493 37.1797 246.177 36.8835 246.906 36.4277C247.635 35.972 248.387 35.1517 249.162 33.9668ZM281.77 33.9668C281.359 34.9694 280.995 35.8809 280.676 36.7012C280.402 37.5215 280.152 38.2507 279.924 38.8887C279.696 39.6178 279.491 40.2559 279.309 40.8027C279.126 41.4408 278.921 42.1699 278.693 42.9902C278.465 43.7194 278.169 44.6309 277.805 45.7246C277.486 46.7728 277.098 48.026 276.643 49.4844C276.278 47.2969 275.617 45.5651 274.66 44.2891C273.703 42.9674 272.723 41.9421 271.721 41.2129C270.536 40.3926 269.26 39.8001 267.893 39.4355C265.432 39.0254 263.654 39.071 262.561 39.5723C261.467 40.0736 260.738 40.7116 260.373 41.4863C260.191 41.8053 259.986 42.2155 259.758 42.7168C259.576 43.1725 259.416 43.651 259.279 44.1523C259.188 44.6536 259.165 45.1549 259.211 45.6562C259.257 46.1576 259.462 46.5677 259.826 46.8867C260.054 47.1146 260.646 47.4336 261.604 47.8438C262.561 48.2083 263.7 48.6413 265.021 49.1426C266.389 49.5983 267.824 50.0996 269.328 50.6465C270.878 51.1934 272.336 51.7402 273.703 52.2871C275.07 52.834 276.255 53.3809 277.258 53.9277C278.26 54.4746 278.921 54.9759 279.24 55.4316C279.514 55.8874 279.81 56.5026 280.129 57.2773C280.493 58.0065 280.744 58.8268 280.881 59.7383C281.063 60.6042 281.109 61.5156 281.018 62.4727C280.972 63.3841 280.721 64.2956 280.266 65.207C279.81 66.1185 279.081 66.9616 278.078 67.7363C277.121 68.5111 275.822 69.1491 274.182 69.6504C272.268 70.2428 270.422 70.4023 268.645 70.1289C266.867 69.8555 265.227 69.4453 263.723 68.8984C262.264 68.3516 260.988 67.8275 259.895 67.3262C258.801 66.7793 258.026 66.5514 257.57 66.6426C257.069 66.7337 256.499 66.9844 255.861 67.3945C255.223 67.8047 254.608 68.2376 254.016 68.6934C253.469 69.1035 252.99 69.4909 252.58 69.8555C252.17 70.1745 251.965 70.2884 251.965 70.1973C251.965 70.1061 252.033 69.8327 252.17 69.377C252.352 68.9212 252.535 68.3743 252.717 67.7363C252.945 67.0527 253.15 66.3236 253.332 65.5488C253.56 64.7285 253.719 63.9538 253.811 63.2246C253.902 62.6322 254.016 61.903 254.152 61.0371C254.243 60.2624 254.357 59.3281 254.494 58.2344C254.676 57.0951 254.882 55.7279 255.109 54.1328C255.337 55.3177 255.656 56.3431 256.066 57.209C256.522 58.0749 256.955 58.8268 257.365 59.4648C257.867 60.194 258.345 60.8092 258.801 61.3105C259.484 61.9486 260.282 62.541 261.193 63.0879C262.15 63.6348 263.107 64.1133 264.064 64.5234C265.021 64.888 265.933 65.1159 266.799 65.207C267.665 65.2982 268.394 65.207 268.986 64.9336C269.579 64.6602 270.08 64.1589 270.49 63.4297C270.946 62.7005 271.265 61.903 271.447 61.0371C271.63 60.1712 271.698 59.3509 271.652 58.5762C271.607 57.7559 271.402 57.0951 271.037 56.5938C270.764 56.2747 270.126 55.8646 269.123 55.3633C268.166 54.862 267.004 54.3151 265.637 53.7227C264.315 53.1302 262.902 52.515 261.398 51.877C259.94 51.2389 258.55 50.6009 257.229 49.9629C255.952 49.2793 254.882 48.6413 254.016 48.0488C253.195 47.4108 252.74 46.8411 252.648 46.3398C252.557 45.6107 252.489 44.8132 252.443 43.9473C252.398 43.0358 252.443 42.1471 252.58 41.2812C252.762 40.3698 253.081 39.5039 253.537 38.6836C254.038 37.8633 254.768 37.1797 255.725 36.6328C256.363 36.2682 257.206 35.9948 258.254 35.8125C259.302 35.6302 260.464 35.5391 261.74 35.5391C263.016 35.4935 264.338 35.5391 265.705 35.6758C267.072 35.7669 268.371 35.9036 269.602 36.0859C270.878 36.2227 272.017 36.4049 273.02 36.6328C274.068 36.8607 274.865 37.0658 275.412 37.248C276.05 37.4759 276.734 37.4987 277.463 37.3164C278.101 37.1797 278.785 36.8835 279.514 36.4277C280.243 35.972 280.995 35.1517 281.77 33.9668Z" fill="white"/>
<path d="M145.347 32.2041C146.127 31.5323 146.856 30.8106 147.528 30.0451L149.846 36.0406C149.967 36.3547 149.946 36.7095 149.786 37.0267C149.625 37.344 149.34 37.5978 148.992 37.7323C148.644 37.8668 148.262 37.871 147.931 37.744C147.599 37.6169 147.344 37.3691 147.223 37.0549L145.347 32.2041ZM142.212 18.3645L131.32 17.4918C130.959 17.4689 130.593 17.5794 130.301 17.7994C130.009 18.0195 129.814 18.3315 129.759 18.6682C129.703 19.0049 129.791 19.3394 130.004 19.5996C130.216 19.8598 130.537 20.0249 130.896 20.0593L139.99 20.7878L142.259 18.3685L142.212 18.3645ZM150.995 9.88425L127.656 8.01514C127.431 7.99726 127.201 8.03138 126.986 8.11452C126.771 8.19765 126.578 8.32724 126.423 8.49188L110.413 25.576C110.242 25.7582 110.125 25.9766 110.074 26.2081C110.022 26.4396 110.039 26.6753 110.122 26.89C110.205 27.1048 110.351 27.2905 110.545 27.4273C110.739 27.5642 110.972 27.6469 111.221 27.6668L116.621 28.0999L119.393 35.2695C119.616 35.8519 120.071 36.3219 120.668 36.5891C123.651 37.919 129.864 39.6816 137.979 36.5442C140.677 35.524 143.177 34.0513 145.347 32.2041L140.963 20.8662L139.99 20.7878L134.253 26.9091L117.881 25.5923L114.221 25.3053L127.963 10.6419L147.995 12.2457L145.489 14.917L145.479 14.9208L142.259 18.3685C142.498 18.3954 142.722 18.481 142.907 18.6166C143.091 18.7522 143.231 18.9331 143.311 19.1411L147.528 30.0451C148.893 28.4921 150.003 26.7668 150.816 24.9319C151.079 24.3322 151.099 23.6788 150.872 23.0975L148.1 15.9278L151.803 11.975C151.974 11.7929 152.091 11.5744 152.143 11.3429C152.194 11.1115 152.177 10.8758 152.094 10.661C152.011 10.4462 151.865 10.2605 151.671 10.1237C151.478 9.98688 151.244 9.90411 150.995 9.88425Z" fill="#FF5050"/>
</svg>
