<svg width="528" height="137" viewBox="0 0 528 137" fill="none" xmlns="http://www.w3.org/2000/svg">
<rect x="1.5" y="1.5" width="525" height="134" stroke="#112A46" stroke-width="3"/>
<path d="M32.4756 32.6299C37.6253 32.777 41.8923 32.8874 45.2764 32.9609C48.734 32.9609 51.5296 32.9609 53.6631 32.9609H59.5117H92.3965C92.5436 34.4323 92.654 35.8669 92.7275 37.2646C92.8747 38.5889 92.9482 39.766 92.9482 40.7959C92.9482 42.0465 92.9115 43.1868 92.8379 44.2168C92.7643 45.2467 92.654 46.3503 92.5068 47.5273C92.3597 48.5573 92.2126 49.6608 92.0654 50.8379C91.9183 52.015 91.6608 53.2288 91.293 54.4795C90.263 50.5068 88.8652 47.4906 87.0996 45.4307C85.4076 43.3708 83.6787 41.8626 81.9131 40.9062C79.8532 39.8027 77.6829 39.2142 75.4023 39.1406C72.3861 39.2878 70.0319 39.5452 68.3398 39.9131C66.6478 40.2809 65.3236 40.7959 64.3672 41.458C63.4108 42.1201 62.6751 42.8926 62.1602 43.7754C61.7188 44.5846 61.2406 45.5042 60.7256 46.5342C60.2842 47.417 59.8796 48.778 59.5117 50.6172C59.1439 52.1621 58.776 54.2588 58.4082 56.9072C58.1139 59.5557 57.7829 62.9766 57.415 67.1699C59.4014 66.5814 60.9831 66.0296 62.1602 65.5146C63.4108 64.9997 64.404 64.5583 65.1396 64.1904C65.9489 63.749 66.5374 63.3444 66.9053 62.9766C67.1995 62.5352 67.641 61.7259 68.2295 60.5488C68.6709 59.5189 69.2594 58.1211 69.9951 56.3555C70.8044 54.5898 71.7607 52.1621 72.8643 49.0723C73.0114 52.4564 73.085 55.2887 73.085 57.5693C73.085 59.7764 73.1217 61.5788 73.1953 62.9766C73.1953 64.5951 73.2321 65.8825 73.3057 66.8389V71.0322C73.3057 72.5771 73.3057 74.6738 73.3057 77.3223C73.3792 79.8971 73.4896 83.1709 73.6367 87.1436C72.7539 84.4215 71.9447 82.2881 71.209 80.7432C70.5469 79.1247 69.9583 77.9108 69.4434 77.1016C68.8548 76.1452 68.3398 75.4831 67.8984 75.1152C67.3835 74.9681 66.6846 74.821 65.8018 74.6738C64.9925 74.6003 63.9626 74.5635 62.7119 74.5635C61.5348 74.5635 60.0267 74.7474 58.1875 75.1152C57.9668 79.1615 57.93 82.4352 58.0771 84.9365C58.2979 87.3643 58.5921 89.2402 58.96 90.5645C59.3278 92.1094 59.7692 93.2129 60.2842 93.875C60.9463 94.5371 62.2705 95.0889 64.2568 95.5303C66.2432 95.8981 68.487 96.0452 70.9883 95.9717C73.5632 95.8245 76.1748 95.3831 78.8232 94.6475C81.4717 93.9118 83.8258 92.6979 85.8857 91.0059C87.4307 89.6081 89.0859 87.8424 90.8516 85.709C92.3229 83.8698 93.9414 81.5524 95.707 78.7568C97.5462 75.9613 99.3486 72.5771 101.114 68.6045C100.82 71.915 100.599 74.6738 100.452 76.8809C100.379 79.0143 100.268 80.7432 100.121 82.0674C99.974 83.6123 99.8636 84.7894 99.79 85.5986C99.79 86.4814 99.6797 87.7321 99.459 89.3506C99.3118 90.7484 99.0544 92.6611 98.6865 95.0889C98.3923 97.443 97.9876 100.459 97.4727 104.138C94.015 104.211 90.7412 104.285 87.6514 104.358C84.5615 104.358 81.8395 104.395 79.4854 104.469C76.6898 104.542 74.1149 104.616 71.7607 104.689C69.333 104.689 66.6478 104.8 63.7051 105.021C61.1302 105.168 58.0771 105.388 54.5459 105.683C51.0882 105.977 47.2627 106.382 43.0693 106.896C43.4372 101.894 43.6947 97.1855 43.8418 92.7715C44.0625 88.2839 44.2096 84.348 44.2832 80.9639C44.3568 76.9912 44.3568 73.3128 44.2832 69.9287C44.651 61.4684 44.5039 54.6266 43.8418 49.4033C43.1797 44.18 42.4072 40.8327 41.5244 39.3613C41.083 38.8464 40.4577 38.221 39.6484 37.4854C38.9863 36.8968 38.0667 36.1979 36.8896 35.3887C35.7126 34.5794 34.2412 33.6598 32.4756 32.6299ZM160.373 23.4707C161.771 23.5443 163.279 23.5811 164.897 23.5811C166.295 23.5811 167.877 23.6178 169.643 23.6914C171.482 23.6914 173.395 23.6178 175.381 23.4707C173.615 24.2799 172.07 25.457 170.746 27.002C169.422 28.5469 168.355 30.0918 167.546 31.6367C166.516 33.4759 165.67 35.3887 165.008 37.375C164.64 38.5521 164.346 40.6488 164.125 43.665C163.904 46.6077 163.72 50.0654 163.573 54.0381C163.5 58.0107 163.463 62.2041 163.463 66.6182C163.463 71.0322 163.5 75.2624 163.573 79.3086C163.647 83.2812 163.757 86.8125 163.904 89.9023C164.051 92.9922 164.235 95.1624 164.456 96.4131C164.75 97.8844 165.118 99.2822 165.56 100.606C165.927 101.784 166.406 102.997 166.994 104.248C167.583 105.425 168.318 106.382 169.201 107.117L157.945 112.193C157.357 111.384 156.879 110.538 156.511 109.655C156.143 108.846 155.849 108.11 155.628 107.448C155.334 106.639 155.15 105.903 155.076 105.241C154.929 104.358 154.782 103.402 154.635 102.372C154.488 101.269 154.304 100.239 154.083 99.2822C153.936 98.2523 153.826 97.4062 153.752 96.7441C153.678 96.082 153.678 95.6774 153.752 95.5303C153.826 95.3831 153.384 96.0452 152.428 97.5166C151.471 98.9144 150.037 100.57 148.124 102.482C146.285 104.322 144.004 106.124 141.282 107.89C138.56 109.582 135.507 110.648 132.123 111.09C128.665 111.531 125.465 110.869 122.522 109.104C119.653 107.338 117.189 104.873 115.129 101.71C113.069 98.473 111.487 94.7578 110.384 90.5645C109.354 86.2975 108.949 81.957 109.17 77.543C109.317 74.6003 109.979 71.9886 111.156 69.708C112.333 67.3538 113.805 65.3307 115.57 63.6387C117.41 61.873 119.396 60.4017 121.529 59.2246C123.736 57.974 125.87 56.944 127.93 56.1348C130.063 55.3255 132.049 54.737 133.889 54.3691C135.728 54.0013 137.199 53.7438 138.303 53.5967C139.627 53.5231 141.135 53.7438 142.827 54.2588C144.299 54.7002 145.991 55.4359 147.903 56.4658C149.89 57.4958 152.097 59.0407 154.524 61.1006C154.083 53.7438 153.678 47.8584 153.311 43.4443C152.943 38.9567 152.575 35.5358 152.207 33.1816C151.839 30.3861 151.508 28.4733 151.214 27.4434C150.846 26.7077 150.368 25.972 149.779 25.2363C149.264 24.6478 148.602 24.0592 147.793 23.4707C147.057 22.8086 146.174 22.2936 145.145 21.9258C147.057 22.2936 148.896 22.5511 150.662 22.6982C152.428 22.8454 154.046 22.9925 155.518 23.1396C157.21 23.2868 158.828 23.3971 160.373 23.4707ZM132.675 64.6318C131.277 65.1468 130.137 66.0296 129.254 67.2803C128.445 68.5309 127.783 70.0391 127.268 71.8047C126.753 73.4967 126.385 75.3359 126.164 77.3223C126.017 79.235 125.907 81.111 125.833 82.9502C125.833 84.7158 125.833 86.3343 125.833 87.8057C125.833 89.277 125.833 90.3805 125.833 91.1162C125.833 91.5576 125.907 92.3669 126.054 93.5439C126.274 94.6475 126.716 95.8245 127.378 97.0752C128.04 98.2523 128.96 99.319 130.137 100.275C131.387 101.232 133.043 101.71 135.103 101.71C136.795 101.563 138.597 100.974 140.51 99.9443C142.202 99.0615 144.115 97.6637 146.248 95.751C148.455 93.7646 150.809 90.9323 153.311 87.2539C153.163 84.8997 153.053 82.9502 152.979 81.4053C152.979 79.8604 152.943 78.6097 152.869 77.6533C152.796 76.5498 152.759 75.667 152.759 75.0049V73.3496C152.759 72.9082 152.759 72.43 152.759 71.915C152.759 71.4001 152.796 70.9219 152.869 70.4805C150.809 69.0091 148.97 67.7585 147.352 66.7285C145.807 65.625 144.262 64.8158 142.717 64.3008C141.245 63.7122 139.701 63.4548 138.082 63.5283C136.537 63.5283 134.735 63.8962 132.675 64.6318ZM173.615 57.2383C175.528 57.6061 177.183 57.9004 178.581 58.1211C180.052 58.2682 181.303 58.4154 182.333 58.5625C183.51 58.7096 184.54 58.82 185.423 58.8936C186.306 58.9671 187.336 59.0407 188.513 59.1143C190.499 59.1878 193.295 59.1878 196.899 59.1143C194.766 58.9671 193.074 59.5189 191.823 60.7695C190.646 61.9466 189.763 63.3076 189.175 64.8525C188.439 66.6917 188.035 68.8252 187.961 71.2529C187.814 74.4899 187.887 77.4326 188.182 80.0811C188.549 82.6559 189.175 84.863 190.058 86.7021C191.014 88.4678 192.265 89.792 193.81 90.6748C195.354 91.484 197.341 91.7048 199.769 91.3369C202.196 90.9691 204.035 90.123 205.286 88.7988C206.61 87.401 207.567 85.709 208.155 83.7227C208.744 81.6628 209.075 79.3454 209.148 76.7705C209.296 74.1956 209.406 71.5104 209.479 68.7148C209.479 65.9193 209.443 63.9329 209.369 62.7559C209.369 61.5052 209.332 60.696 209.259 60.3281C209.185 59.9603 209.075 59.8132 208.928 59.8867C208.781 59.8867 208.597 59.7028 208.376 59.335C208.229 59.0407 208.008 58.7464 207.714 58.4521C207.493 58.1579 207.199 57.8268 206.831 57.459C206.463 57.0176 206.059 56.5762 205.617 56.1348C207.53 56.2083 209.222 56.2819 210.693 56.3555C212.238 56.3555 213.526 56.3923 214.556 56.4658C215.733 56.5394 216.763 56.613 217.646 56.6865C218.455 56.7601 219.521 56.8704 220.846 57.0176C221.949 57.1647 223.384 57.3118 225.149 57.459C226.915 57.6061 229.012 57.8268 231.439 58.1211C229.747 58.4889 228.386 59.0407 227.356 59.7764C226.326 60.512 225.517 61.2477 224.929 61.9834C224.267 62.7926 223.788 63.6755 223.494 64.6318C223.273 65.8825 223.273 67.7952 223.494 70.3701C223.641 72.6507 224.009 75.7773 224.598 79.75C225.186 83.7227 226.106 88.946 227.356 95.4199L218.639 100.606L216.873 85.9297C214.74 89.5345 212.459 92.3301 210.031 94.3164C207.677 96.2292 205.47 97.627 203.41 98.5098C200.982 99.5397 198.628 100.128 196.348 100.275C193.331 100.275 190.72 100.091 188.513 99.7236C186.379 99.2822 184.54 98.7305 182.995 98.0684C181.45 97.4062 180.2 96.6706 179.243 95.8613C178.36 94.9785 177.698 94.0957 177.257 93.2129C176.227 91.3737 175.675 89.0195 175.602 86.1504C175.528 83.2077 175.638 80.3018 175.933 77.4326C176.227 74.4899 176.558 71.8047 176.926 69.377C177.294 66.9492 177.404 65.2939 177.257 64.4111C177.11 63.749 176.889 63.0133 176.595 62.2041C176.3 61.542 175.933 60.8063 175.491 59.9971C175.05 59.1143 174.424 58.1947 173.615 57.2383ZM264.876 26.4502C267.451 26.4502 269.768 26.8916 271.828 27.7744C273.962 28.5837 275.911 29.5033 277.677 30.5332C279.516 31.5632 281.245 32.5195 282.863 33.4023C284.482 34.2116 286.137 34.6162 287.829 34.6162C289.153 34.5426 290.661 34.3587 292.354 34.0645C293.825 33.7702 295.517 33.3288 297.43 32.7402C299.416 32.0781 301.623 31.1217 304.051 29.8711C301.623 32.2253 299.637 34.2116 298.092 35.8301C296.62 37.375 295.48 38.6624 294.671 39.6924C293.715 40.8695 293.016 41.7891 292.574 42.4512C292.133 43.2604 291.471 44.4743 290.588 46.0928C289.779 47.5641 288.675 49.5505 287.277 52.0518C285.88 54.4795 284.114 57.6797 281.98 61.6523C281.98 56.5762 281.465 52.6403 280.436 49.8447C279.479 47.0492 278.412 44.9157 277.235 43.4443C275.838 41.7523 274.256 40.6855 272.49 40.2441C270.872 40.0234 269.253 40.3177 267.635 41.127C266.016 41.8626 264.398 42.9661 262.779 44.4375C261.234 45.9089 259.726 47.6745 258.255 49.7344C256.857 51.7207 255.57 53.8174 254.393 56.0244C253.289 58.2314 252.369 60.4753 251.634 62.7559C250.898 64.9629 250.42 67.0228 250.199 68.9355C249.979 70.6276 249.942 72.6139 250.089 74.8945C250.236 77.1016 250.567 79.3822 251.082 81.7363C251.597 84.0169 252.259 86.2607 253.068 88.4678C253.878 90.6748 254.871 92.6611 256.048 94.4268C257.299 96.1188 258.696 97.5166 260.241 98.6201C261.786 99.6501 263.552 100.128 265.538 100.055C267.745 99.9076 269.915 99.2454 272.049 98.0684C273.888 97.112 275.764 95.6406 277.677 93.6543C279.59 91.5944 281.245 88.6885 282.643 84.9365L298.975 87.916C294.266 93.6543 289.668 97.958 285.181 100.827C280.767 103.696 276.794 105.719 273.263 106.896C269.143 108.221 265.244 108.846 261.565 108.772C256.931 108.257 252.59 106.86 248.544 104.579C244.498 102.299 241.003 99.5397 238.061 96.3027C235.191 92.9922 232.948 89.3874 231.329 85.4883C229.711 81.5892 229.012 77.7637 229.232 74.0117C229.38 71.5104 229.895 68.6045 230.777 65.2939C231.66 61.9098 232.837 58.4521 234.309 54.9209C235.854 51.3896 237.693 47.932 239.826 44.5479C241.96 41.1637 244.314 38.1475 246.889 35.499C249.464 32.777 252.259 30.6068 255.275 28.9883C258.365 27.2962 261.565 26.4502 264.876 26.4502ZM302.616 111.09C303.352 109.986 303.94 108.956 304.382 108C304.823 107.044 305.191 106.234 305.485 105.572C305.78 104.763 306 104.027 306.147 103.365C306.221 102.924 306.258 101.636 306.258 99.5029C306.258 97.3695 306.184 94.6842 306.037 91.4473C305.964 88.2103 305.853 84.5687 305.706 80.5225C305.632 76.4762 305.485 72.3564 305.265 68.1631C305.118 63.9697 304.934 59.8867 304.713 55.9141C304.566 51.9414 304.419 48.3734 304.271 45.21C304.124 41.973 303.977 39.3245 303.83 37.2646C303.683 35.2048 303.573 34.0277 303.499 33.7334C303.352 33.292 303.094 32.8506 302.727 32.4092C301.991 31.5264 300.74 30.6803 298.975 29.8711C302.727 28.9147 305.596 28.1423 307.582 27.5537C308.759 27.2594 309.789 26.9652 310.672 26.6709C311.481 26.3766 312.29 26.0824 313.1 25.7881C313.762 25.4938 314.497 25.1628 315.307 24.7949C316.116 24.3535 316.852 23.8753 317.514 23.3604C317.146 25.4938 316.852 27.5537 316.631 29.54C316.41 31.5264 316.226 33.3656 316.079 35.0576C315.932 36.9704 315.858 38.8096 315.858 40.5752C315.491 44.18 315.27 48.1159 315.196 52.3828C315.196 56.5762 315.233 60.8431 315.307 65.1836C315.38 69.5241 315.527 73.7542 315.748 77.874C315.969 81.9938 316.189 85.7458 316.41 89.1299C316.704 92.4404 316.962 95.2728 317.183 97.627C317.477 99.9076 317.698 101.379 317.845 102.041C318.139 103.145 318.433 104.211 318.728 105.241C319.022 106.124 319.353 107.044 319.721 108C320.089 109.03 320.53 109.839 321.045 110.428H310.341C309.384 110.428 308.465 110.465 307.582 110.538C306.773 110.612 305.927 110.685 305.044 110.759C304.161 110.832 303.352 110.943 302.616 111.09ZM333.294 63.3076C333.662 62.8662 333.882 62.057 333.956 60.8799C334.103 59.6292 334.397 58.2314 334.839 56.6865C335.354 55.1416 336.2 53.5231 337.377 51.8311C338.554 50.139 340.467 48.5573 343.115 47.0859C345.69 45.6146 348.191 44.7318 350.619 44.4375C353.047 44.1432 355.364 44.2536 357.571 44.7686C359.778 45.2835 361.838 46.0928 363.751 47.1963C365.737 48.2998 367.54 49.5137 369.158 50.8379C370.262 51.7207 371.145 53.0081 371.807 54.7002C372.469 56.3187 372.984 58.1579 373.352 60.2178C373.719 62.2777 373.977 64.4479 374.124 66.7285C374.345 68.9355 374.492 71.1058 374.565 73.2393C374.639 75.2992 374.676 77.2119 374.676 78.9775C374.749 80.6696 374.896 82.0674 375.117 83.1709C375.411 84.7894 375.926 86.1872 376.662 87.3643C377.398 88.4678 378.207 89.4242 379.09 90.2334C379.973 90.9691 380.855 91.5576 381.738 91.999C382.621 92.4404 383.394 92.7715 384.056 92.9922C384.497 93.2129 384.902 93.36 385.27 93.4336C386.005 93.7279 386.52 93.7279 386.814 93.4336C386.373 94.4635 385.968 95.3464 385.601 96.082C385.233 96.8177 384.938 97.443 384.718 97.958C384.424 98.5465 384.166 99.0247 383.945 99.3926C383.725 99.834 383.467 100.239 383.173 100.606C382.952 100.974 382.658 101.379 382.29 101.82C381.922 102.262 381.554 102.74 381.187 103.255C380.23 102.887 379.311 102.446 378.428 101.931C377.618 101.416 376.883 100.938 376.221 100.496C375.411 99.9811 374.676 99.4661 374.014 98.9512C373.352 98.4362 372.726 97.8477 372.138 97.1855C371.623 96.597 371.071 95.9717 370.482 95.3096C369.967 94.6475 369.526 93.9118 369.158 93.1025C368.717 94.0589 367.65 95.4199 365.958 97.1855C364.34 98.9512 362.206 100.57 359.558 102.041C356.909 103.439 353.819 104.432 350.288 105.021C346.83 105.609 343.005 105.204 338.812 103.807C336.972 103.218 335.243 102.372 333.625 101.269C332.007 100.091 330.609 98.6937 329.432 97.0752C328.328 95.4567 327.519 93.6175 327.004 91.5576C326.562 89.4242 326.599 87.07 327.114 84.4951C327.629 81.9202 328.549 79.75 329.873 77.9844C331.197 76.2188 332.779 74.7842 334.618 73.6807C336.457 72.5771 338.517 71.7311 340.798 71.1426C343.078 70.554 345.433 70.1494 347.86 69.9287C349.773 69.8551 351.686 69.9655 353.599 70.2598C355.217 70.554 356.909 71.1058 358.675 71.915C360.44 72.6507 361.949 73.791 363.199 75.3359C363.126 71.4368 362.979 68.347 362.758 66.0664C362.611 63.7122 362.464 61.9098 362.316 60.6592C362.022 59.1878 361.765 58.1579 361.544 57.5693C361.176 57.0544 360.771 56.4658 360.33 55.8037C359.962 55.1416 359.484 54.5531 358.896 54.0381C358.307 53.4495 357.571 52.9714 356.688 52.6035C355.806 52.2357 354.776 52.0885 353.599 52.1621C352.348 52.2357 351.355 52.5667 350.619 53.1553C349.883 53.7438 349.295 54.4427 348.854 55.252C348.486 55.9876 348.265 56.7969 348.191 57.6797C348.118 58.5625 348.155 59.335 348.302 59.9971C348.449 60.4385 348.67 60.9167 348.964 61.4316C349.258 61.873 349.663 62.3512 350.178 62.8662C350.693 63.3812 351.392 63.8226 352.274 64.1904C350.582 64.4111 349.074 64.5951 347.75 64.7422C346.426 64.8158 345.285 64.9261 344.329 65.0732C343.226 65.2204 342.269 65.3307 341.46 65.4043C340.651 65.4779 339.694 65.625 338.591 65.8457C337.634 65.9928 336.457 66.1768 335.06 66.3975C333.662 66.6182 332.043 66.9124 330.204 67.2803C330.646 66.7653 331.05 66.2871 331.418 65.8457C331.786 65.3307 332.117 64.8893 332.411 64.5215C332.705 64.0801 333 63.6755 333.294 63.3076ZM349.847 76.4395C348.522 76.513 347.198 76.8441 345.874 77.4326C344.55 77.9476 343.373 78.7201 342.343 79.75C341.313 80.7064 340.43 81.8467 339.694 83.1709C339.032 84.4215 338.701 85.8193 338.701 87.3643C338.701 88.9092 339.069 90.2702 339.805 91.4473C340.614 92.5508 341.644 93.4704 342.895 94.2061C344.219 94.9417 345.617 95.3831 347.088 95.5303C348.633 95.6774 350.141 95.5303 351.612 95.0889C353.01 94.5739 354.334 93.7646 355.585 92.6611C356.836 91.484 357.902 90.2334 358.785 88.9092C359.668 87.5114 360.293 86.1504 360.661 84.8262C361.029 83.4284 361.066 82.2881 360.771 81.4053C360.183 79.4925 358.859 78.1683 356.799 77.4326C354.739 76.6234 352.422 76.2923 349.847 76.4395ZM434.376 44.9893C433.714 46.6077 433.125 48.0791 432.61 49.4033C432.169 50.7275 431.764 51.9046 431.396 52.9346C431.029 54.1117 430.698 55.1416 430.403 56.0244C430.109 57.0544 429.778 58.2314 429.41 59.5557C429.042 60.7327 428.564 62.2041 427.976 63.9697C427.461 65.6618 426.835 67.6849 426.1 70.0391C425.511 66.5078 424.444 63.7122 422.899 61.6523C421.354 59.5189 419.773 57.8636 418.154 56.6865C416.242 55.3623 414.182 54.4059 411.975 53.8174C408.002 53.1553 405.133 53.2288 403.367 54.0381C401.602 54.8473 400.424 55.8773 399.836 57.1279C399.542 57.6429 399.211 58.305 398.843 59.1143C398.549 59.8499 398.291 60.6224 398.07 61.4316C397.923 62.2409 397.886 63.0501 397.96 63.8594C398.034 64.6686 398.365 65.3307 398.953 65.8457C399.321 66.2135 400.277 66.7285 401.822 67.3906C403.367 67.9792 405.206 68.6781 407.34 69.4873C409.547 70.223 411.864 71.0322 414.292 71.915C416.793 72.7979 419.147 73.6807 421.354 74.5635C423.562 75.4463 425.474 76.3291 427.093 77.2119C428.711 78.0947 429.778 78.904 430.293 79.6396C430.734 80.3753 431.213 81.3685 431.728 82.6191C432.316 83.7962 432.721 85.1204 432.941 86.5918C433.236 87.9896 433.309 89.4609 433.162 91.0059C433.089 92.4772 432.684 93.9486 431.948 95.4199C431.213 96.8913 430.035 98.2523 428.417 99.5029C426.872 100.754 424.775 101.784 422.127 102.593C419.037 103.549 416.058 103.807 413.188 103.365C410.319 102.924 407.671 102.262 405.243 101.379C402.889 100.496 400.829 99.6501 399.063 98.8408C397.298 97.958 396.047 97.5902 395.312 97.7373C394.502 97.8844 393.583 98.2891 392.553 98.9512C391.523 99.6133 390.53 100.312 389.573 101.048C388.69 101.71 387.918 102.335 387.256 102.924C386.594 103.439 386.263 103.623 386.263 103.476C386.263 103.328 386.373 102.887 386.594 102.151C386.888 101.416 387.182 100.533 387.477 99.5029C387.844 98.3994 388.175 97.2223 388.47 95.9717C388.838 94.6475 389.095 93.3968 389.242 92.2197C389.389 91.2633 389.573 90.0863 389.794 88.6885C389.941 87.4378 390.125 85.9297 390.346 84.1641C390.64 82.3249 390.971 80.1178 391.339 77.543C391.707 79.4557 392.222 81.111 392.884 82.5088C393.619 83.9066 394.318 85.1204 394.98 86.1504C395.79 87.3275 396.562 88.3206 397.298 89.1299C398.401 90.1598 399.689 91.1162 401.16 91.999C402.705 92.8818 404.25 93.6543 405.795 94.3164C407.34 94.9049 408.811 95.2728 410.209 95.4199C411.607 95.5671 412.784 95.4199 413.74 94.9785C414.697 94.5371 415.506 93.7279 416.168 92.5508C416.904 91.3737 417.419 90.0863 417.713 88.6885C418.007 87.2907 418.118 85.9665 418.044 84.7158C417.97 83.3916 417.639 82.3249 417.051 81.5156C416.609 81.0007 415.579 80.3385 413.961 79.5293C412.416 78.7201 410.54 77.8372 408.333 76.8809C406.2 75.9245 403.919 74.9313 401.491 73.9014C399.137 72.8714 396.893 71.8415 394.76 70.8115C392.7 69.708 390.971 68.6781 389.573 67.7217C388.249 66.6917 387.513 65.7721 387.366 64.9629C387.219 63.7858 387.109 62.4984 387.035 61.1006C386.962 59.6292 387.035 58.1947 387.256 56.7969C387.55 55.3255 388.065 53.9277 388.801 52.6035C389.61 51.2793 390.787 50.1758 392.332 49.293C393.362 48.7044 394.723 48.263 396.415 47.9688C398.107 47.6745 399.983 47.5273 402.043 47.5273C404.103 47.4538 406.236 47.5273 408.443 47.748C410.65 47.8952 412.747 48.1159 414.733 48.4102C416.793 48.6309 418.632 48.9251 420.251 49.293C421.943 49.6608 423.23 49.9919 424.113 50.2861C425.143 50.654 426.247 50.6908 427.424 50.3965C428.454 50.1758 429.557 49.6976 430.734 48.9619C431.911 48.2262 433.125 46.902 434.376 44.9893ZM487.014 44.9893C486.352 46.6077 485.763 48.0791 485.248 49.4033C484.807 50.7275 484.402 51.9046 484.034 52.9346C483.666 54.1117 483.335 55.1416 483.041 56.0244C482.747 57.0544 482.416 58.2314 482.048 59.5557C481.68 60.7327 481.202 62.2041 480.613 63.9697C480.098 65.6618 479.473 67.6849 478.737 70.0391C478.149 66.5078 477.082 63.7122 475.537 61.6523C473.992 59.5189 472.41 57.8636 470.792 56.6865C468.879 55.3623 466.819 54.4059 464.612 53.8174C460.64 53.1553 457.771 53.2288 456.005 54.0381C454.239 54.8473 453.062 55.8773 452.474 57.1279C452.179 57.6429 451.848 58.305 451.48 59.1143C451.186 59.8499 450.929 60.6224 450.708 61.4316C450.561 62.2409 450.524 63.0501 450.598 63.8594C450.671 64.6686 451.002 65.3307 451.591 65.8457C451.959 66.2135 452.915 66.7285 454.46 67.3906C456.005 67.9792 457.844 68.6781 459.978 69.4873C462.185 70.223 464.502 71.0322 466.93 71.915C469.431 72.7979 471.785 73.6807 473.992 74.5635C476.199 75.4463 478.112 76.3291 479.73 77.2119C481.349 78.0947 482.416 78.904 482.931 79.6396C483.372 80.3753 483.85 81.3685 484.365 82.6191C484.954 83.7962 485.358 85.1204 485.579 86.5918C485.873 87.9896 485.947 89.4609 485.8 91.0059C485.726 92.4772 485.322 93.9486 484.586 95.4199C483.85 96.8913 482.673 98.2523 481.055 99.5029C479.51 100.754 477.413 101.784 474.765 102.593C471.675 103.549 468.695 103.807 465.826 103.365C462.957 102.924 460.309 102.262 457.881 101.379C455.527 100.496 453.467 99.6501 451.701 98.8408C449.936 97.958 448.685 97.5902 447.949 97.7373C447.14 97.8844 446.22 98.2891 445.19 98.9512C444.16 99.6133 443.167 100.312 442.211 101.048C441.328 101.71 440.556 102.335 439.894 102.924C439.231 103.439 438.9 103.623 438.9 103.476C438.9 103.328 439.011 102.887 439.231 102.151C439.526 101.416 439.82 100.533 440.114 99.5029C440.482 98.3994 440.813 97.2223 441.107 95.9717C441.475 94.6475 441.733 93.3968 441.88 92.2197C442.027 91.2633 442.211 90.0863 442.432 88.6885C442.579 87.4378 442.763 85.9297 442.983 84.1641C443.278 82.3249 443.609 80.1178 443.977 77.543C444.344 79.4557 444.859 81.111 445.521 82.5088C446.257 83.9066 446.956 85.1204 447.618 86.1504C448.427 87.3275 449.2 88.3206 449.936 89.1299C451.039 90.1598 452.326 91.1162 453.798 91.999C455.343 92.8818 456.888 93.6543 458.433 94.3164C459.978 94.9049 461.449 95.2728 462.847 95.4199C464.244 95.5671 465.422 95.4199 466.378 94.9785C467.334 94.5371 468.144 93.7279 468.806 92.5508C469.541 91.3737 470.056 90.0863 470.351 88.6885C470.645 87.2907 470.755 85.9665 470.682 84.7158C470.608 83.3916 470.277 82.3249 469.688 81.5156C469.247 81.0007 468.217 80.3385 466.599 79.5293C465.054 78.7201 463.178 77.8372 460.971 76.8809C458.837 75.9245 456.557 74.9313 454.129 73.9014C451.775 72.8714 449.531 71.8415 447.397 70.8115C445.338 69.708 443.609 68.6781 442.211 67.7217C440.887 66.6917 440.151 65.7721 440.004 64.9629C439.857 63.7858 439.746 62.4984 439.673 61.1006C439.599 59.6292 439.673 58.1947 439.894 56.7969C440.188 55.3255 440.703 53.9277 441.438 52.6035C442.248 51.2793 443.425 50.1758 444.97 49.293C446 48.7044 447.361 48.263 449.053 47.9688C450.745 47.6745 452.621 47.5273 454.681 47.5273C456.741 47.4538 458.874 47.5273 461.081 47.748C463.288 47.8952 465.385 48.1159 467.371 48.4102C469.431 48.6309 471.27 48.9251 472.889 49.293C474.581 49.6608 475.868 49.9919 476.751 50.2861C477.781 50.654 478.884 50.6908 480.062 50.3965C481.091 50.1758 482.195 49.6976 483.372 48.9619C484.549 48.2262 485.763 46.902 487.014 44.9893Z" fill="white"/>
</svg>
