<svg width="34" height="34" viewBox="0 0 34 34" fill="none" xmlns="http://www.w3.org/2000/svg">
<path d="M31.1667 0H2.83333C2.08189 0 1.36122 0.298511 0.829864 0.829864C0.298511 1.36122 0 2.08189 0 2.83333V31.1667C0 31.9181 0.298511 32.6388 0.829864 33.1701C1.36122 33.7015 2.08189 34 2.83333 34H31.1667C31.9181 34 32.6388 33.7015 33.1701 33.1701C33.7015 32.6388 34 31.9181 34 31.1667V2.83333C34 2.08189 33.7015 1.36122 33.1701 0.829864C32.6388 0.298511 31.9181 0 31.1667 0ZM28.3333 26.9167H5.66667C5.29094 26.9167 4.93061 26.7674 4.66493 26.5017C4.39926 26.2361 4.25 25.8757 4.25 25.5C4.25 25.1243 4.39926 24.7639 4.66493 24.4983C4.93061 24.2326 5.29094 24.0833 5.66667 24.0833H28.3333C28.7091 24.0833 29.0694 24.2326 29.3351 24.4983C29.6007 24.7639 29.75 25.1243 29.75 25.5C29.75 25.8757 29.6007 26.2361 29.3351 26.5017C29.0694 26.7674 28.7091 26.9167 28.3333 26.9167ZM28.3333 18.4167H5.66667C5.29094 18.4167 4.93061 18.2674 4.66493 18.0017C4.39926 17.7361 4.25 17.3757 4.25 17C4.25 16.6243 4.39926 16.2639 4.66493 15.9983C4.93061 15.7326 5.29094 15.5833 5.66667 15.5833H28.3333C28.7091 15.5833 29.0694 15.7326 29.3351 15.9983C29.6007 16.2639 29.75 16.6243 29.75 17C29.75 17.3757 29.6007 17.7361 29.3351 18.0017C29.0694 18.2674 28.7091 18.4167 28.3333 18.4167ZM28.3333 9.91667H5.66667C5.29094 9.91667 4.93061 9.76741 4.66493 9.50173C4.39926 9.23606 4.25 8.87572 4.25 8.5C4.25 8.12428 4.39926 7.76394 4.66493 7.49827C4.93061 7.23259 5.29094 7.08333 5.66667 7.08333H28.3333C28.7091 7.08333 29.0694 7.23259 29.3351 7.49827C29.6007 7.76394 29.75 8.12428 29.75 8.5C29.75 8.87572 29.6007 9.23606 29.3351 9.50173C29.0694 9.76741 28.7091 9.91667 28.3333 9.91667Z" fill="white"/>
</svg>
